<?xml version="1.0" encoding="UTF-8"?>
<COLLADA xmlns="http://www.collada.org/2005/11/COLLADASchema" version="1.4.1">
  <asset>
    <contributor>
      <author />
      <authoring_tool>Rhinoceros 7.7.21160.5001</authoring_tool>
      <comments>Output from Rhinoceros COLLADA Exporter</comments>
      <copyright />
      <source_data />
    </contributor>
    <created>2023-10-19T09:22:13Z</created>
    <modified>2023-10-19T09:22:13Z</modified>
    <unit meter="0.01" name="Centimeters" />
    <up_axis>Z_UP</up_axis>
  </asset>
  <library_cameras>
    <camera id="Camera-Perspective" name="Camera-Perspective">
      <optics>
        <technique_common>
          <perspective>
            <xfov>53.255996</xfov>
            <aspect_ratio>2.089059</aspect_ratio>
            <znear>32.412722</znear>
            <zfar>3455.806879</zfar>
          </perspective>
        </technique_common>
      </optics>
    </camera>
    <camera id="Camera-Top" name="Camera-Top">
      <optics>
        <technique_common>
          <orthographic>
            <xmag>1.0</xmag>
            <aspect_ratio>2.099237</aspect_ratio>
            <znear>4232.267869</znear>
            <zfar>4236.267900</zfar>
          </orthographic>
        </technique_common>
      </optics>
    </camera>
    <camera id="Camera-Front" name="Camera-Front">
      <optics>
        <technique_common>
          <orthographic>
            <xmag>1.0</xmag>
            <aspect_ratio>2.126289</aspect_ratio>
            <znear>2131.077585</znear>
            <zfar>2134.077608</zfar>
          </orthographic>
        </technique_common>
      </optics>
    </camera>
    <camera id="Camera-Right" name="Camera-Right">
      <optics>
        <technique_common>
          <orthographic>
            <xmag>1.0</xmag>
            <aspect_ratio>2.115979</aspect_ratio>
            <znear>7072.379558</znear>
            <zfar>7094.379725</zfar>
          </orthographic>
        </technique_common>
      </optics>
    </camera>
  </library_cameras>
  <library_materials>
    <material id="ce9d86c2-e4fb-4ec6-bb71-b0b00f1101fb" name="Material-金属__1_">
      <instance_effect url="#fx-ce9d86c2-e4fb-4ec6-bb71-b0b00f1101fb" />
    </material>
  </library_materials>
  <library_effects>
    <effect id="fx-ce9d86c2-e4fb-4ec6-bb71-b0b00f1101fb">
      <profile_COMMON>
        <technique sid="common">
          <phong>
            <emission>
              <color>0.000000 0.000000 0.000000 1.000000</color>
            </emission>
            <ambient>
              <color>0.000000 0.000000 0.000000 1.000000</color>
            </ambient>
            <diffuse>
              <color>0.000000 0.000000 0.000000 1.000000</color>
            </diffuse>
            <specular>
              <color>0.498039 0.498039 0.498039 1.000000</color>
            </specular>
            <shininess>
              <float>1.000000</float>
            </shininess>
            <reflective>
              <color>0.498039 0.498039 0.498039 1.000000</color>
            </reflective>
            <reflectivity>
              <float>0.000000</float>
            </reflectivity>
            <transparent>
              <color>1.000000 1.000000 1.000000 1.000000</color>
            </transparent>
            <transparency>
              <float>1.000000</float>
            </transparency>
            <index_of_refraction>
              <float>0.000000</float>
            </index_of_refraction>
          </phong>
        </technique>
      </profile_COMMON>
      <extra>
        <technique profile="Rhino">
          <appearance_hash>1481258570</appearance_hash>
        </technique>
      </extra>
    </effect>
  </library_effects>
  <library_geometries>
    <geometry id="mesh-dcac8de3-367a-42b7-9052-5f1f204a3619">
      <mesh>
        <source id="lib-position-dcac8de3-367a-42b7-9052-5f1f204a3619" name="position">
          <float_array id="lib-position-array-dcac8de3-367a-42b7-9052-5f1f204a3619" count="606" digits="17" magnitude="308">-9 -1 0.150000005960464 -9 -1 -2.84999990463257 -9.18196296691895 -0.983305335044861 0.150000005960464 -9.18196296691895 -0.983305335044861 -2.84999990463257 -9.3680944442749 -0.929788291454315 0.150000005960464 -9.3680944442749 -0.929788291454315 -2.84999990463257 -9.45929431915283 -0.888284027576447 0.150000005960464 -9.45929431915283 -0.888284027576447 -2.84999990463257 -9.54720973968506 -0.836995482444763 0.150000005960464 -9.54720973968506 -0.836995482444763 -2.84999990463257 -9.63029766082764 -0.776353180408478 0.150000005960464 -9.63029766082764 -0.776353180408478 -2.84999990463257 -9.707106590271 -0.70710676908493 0.150000005960464 -9.707106590271 -0.70710676908493 -2.84999990463257 -9.77635288238525 -0.630298137664795 0.150000005960464 -9.77635288238525 -0.630298137664795 -2.84999990463257 -9.83699512481689 -0.547209739685059 0.150000005960464 -9.83699512481689 -0.547209739685059 -2.84999990463257 -9.88828372955322 -0.459294617176056 0.150000005960464 -9.88828372955322 -0.459294617176056 -2.84999990463257 -9.92978858947754 -0.368094712495804 0.150000005960464 -9.92978858947754 -0.368094712495804 -2.84999990463257 -9.98330497741699 -0.181963056325912 0.150000005960464 -9.98330497741699 -0.181963056325912 -2.84999990463257 -10 0 0.150000005960464 -10 0 -2.84999990463257 -9.98330497741699 0.181963056325912 0.150000005960464 -9.98330497741699 0.181963056325912 -2.84999990463257 -9.92978858947754 0.368094712495804 0.150000005960464 -9.92978858947754 0.368094712495804 -2.84999990463257 -9.88828372955322 0.459294617176056 0.150000005960464 -9.88828372955322 0.459294617176056 -2.84999990463257 -9.83699512481689 0.547209739685059 0.150000005960464 -9.83699512481689 0.547209739685059 -2.84999990463257 -9.77635288238525 0.630298137664795 0.150000005960464 -9.77635288238525 0.630298137664795 -2.84999990463257 -9.707106590271 0.70710676908493 0.150000005960464 -9.707106590271 0.70710676908493 -2.84999990463257 -9.63029766082764 0.776353180408478 0.150000005960464 -9.63029766082764 0.776353180408478 -2.84999990463257 -9.54720973968506 0.836995482444763 0.150000005960464 -9.54720973968506 0.836995482444763 -2.84999990463257 -9.45929431915283 0.888284027576447 0.150000005960464 -9.45929431915283 0.888284027576447 -2.84999990463257 -9.3680944442749 0.929788291454315 0.150000005960464 -9.3680944442749 0.929788291454315 -2.84999990463257 -9.18196296691895 0.983305335044861 0.150000005960464 -9.18196296691895 0.983305335044861 -2.84999990463257 -9 1 0.150000005960464 -9 1 -2.84999990463257 9 1 0.150000005960464 9 1 -2.84999990463257 9.18196296691895 0.983305335044861 0.150000005960464 9.18196296691895 0.983305335044861 -2.84999990463257 9.3680944442749 0.929788291454315 0.150000005960464 9.3680944442749 0.929788291454315 -2.84999990463257 9.45929431915283 0.888284027576447 0.150000005960464 9.45929431915283 0.888284027576447 -2.84999990463257 9.54720973968506 0.836995482444763 0.150000005960464 9.54720973968506 0.836995482444763 -2.84999990463257 9.63029766082764 0.776353180408478 0.150000005960464 9.63029766082764 0.776353180408478 -2.84999990463257 9.707106590271 0.70710676908493 0.150000005960464 9.707106590271 0.70710676908493 -2.84999990463257 9.77635288238525 0.630298137664795 0.150000005960464 9.77635288238525 0.630298137664795 -2.84999990463257 9.83699512481689 0.547209739685059 0.150000005960464 9.83699512481689 0.547209739685059 -2.84999990463257 9.88828372955322 0.459294617176056 0.150000005960464 9.88828372955322 0.459294617176056 -2.84999990463257 9.92978858947754 0.368094712495804 0.150000005960464 9.92978858947754 0.368094712495804 -2.84999990463257 9.98330497741699 0.181963056325912 0.150000005960464 9.98330497741699 0.181963056325912 -2.84999990463257 10 0 0.150000005960464 10 0 -2.84999990463257 9.98330497741699 -0.181963056325912 0.150000005960464 9.98330497741699 -0.181963056325912 -2.84999990463257 9.92978858947754 -0.368094712495804 0.150000005960464 9.92978858947754 -0.368094712495804 -2.84999990463257 9.88828372955322 -0.459294617176056 0.150000005960464 9.88828372955322 -0.459294617176056 -2.84999990463257 9.83699512481689 -0.547209739685059 0.150000005960464 9.83699512481689 -0.547209739685059 -2.84999990463257 9.77635288238525 -0.630298137664795 0.150000005960464 9.77635288238525 -0.630298137664795 -2.84999990463257 9.707106590271 -0.70710676908493 0.150000005960464 9.707106590271 -0.70710676908493 -2.84999990463257 9.63029766082764 -0.776353180408478 0.150000005960464 9.63029766082764 -0.776353180408478 -2.84999990463257 9.54720973968506 -0.836995482444763 0.150000005960464 9.54720973968506 -0.836995482444763 -2.84999990463257 9.45929431915283 -0.888284027576447 0.150000005960464 9.45929431915283 -0.888284027576447 -2.84999990463257 9.3680944442749 -0.929788291454315 0.150000005960464 9.3680944442749 -0.929788291454315 -2.84999990463257 9.18196296691895 -0.983305335044861 0.150000005960464 9.18196296691895 -0.983305335044861 -2.84999990463257 9 -1 0.150000005960464 9 -1 -2.84999990463257 -9 -1 0.150000005960464 -9 -1 -2.84999990463257 -9 -1 0.150000005960464 -9.18196296691895 -0.983305335044861 0.150000005960464 -9.3680944442749 -0.929788291454315 0.150000005960464 -9.45929431915283 -0.888284027576447 0.150000005960464 -9.54720973968506 -0.836995482444763 0.150000005960464 -9.63029766082764 -0.776353180408478 0.150000005960464 -9.707106590271 -0.70710676908493 0.150000005960464 -9.77635288238525 -0.630298137664795 0.150000005960464 -9.83699512481689 -0.547209739685059 0.150000005960464 -9.88828372955322 -0.459294617176056 0.150000005960464 -9.92978858947754 -0.368094712495804 0.150000005960464 -9.98330497741699 -0.181963056325912 0.150000005960464 -10 0 0.150000005960464 -9.98330497741699 0.181963056325912 0.150000005960464 -9.92978858947754 0.368094712495804 0.150000005960464 -9.88828372955322 0.459294617176056 0.150000005960464 -9.83699512481689 0.547209739685059 0.150000005960464 -9.77635288238525 0.630298137664795 0.150000005960464 -9.707106590271 0.70710676908493 0.150000005960464 -9.63029766082764 0.776353180408478 0.150000005960464 -9.54720973968506 0.836995482444763 0.150000005960464 -9.45929431915283 0.888284027576447 0.150000005960464 -9.3680944442749 0.929788291454315 0.150000005960464 -9.18196296691895 0.983305335044861 0.150000005960464 -9 1 0.150000005960464 9 1 0.150000005960464 9.18196296691895 0.983305335044861 0.150000005960464 9.3680944442749 0.929788291454315 0.150000005960464 9.45929431915283 0.888284027576447 0.150000005960464 9.54720973968506 0.836995482444763 0.150000005960464 9.63029766082764 0.776353180408478 0.150000005960464 9.707106590271 0.70710676908493 0.150000005960464 9.77635288238525 0.630298137664795 0.150000005960464 9.83699512481689 0.547209739685059 0.150000005960464 9.88828372955322 0.459294617176056 0.150000005960464 9.92978858947754 0.368094712495804 0.150000005960464 9.98330497741699 0.181963056325912 0.150000005960464 10 0 0.150000005960464 9.98330497741699 -0.181963056325912 0.150000005960464 9.92978858947754 -0.368094712495804 0.150000005960464 9.88828372955322 -0.459294617176056 0.150000005960464 9.83699512481689 -0.547209739685059 0.150000005960464 9.77635288238525 -0.630298137664795 0.150000005960464 9.707106590271 -0.70710676908493 0.150000005960464 9.63029766082764 -0.776353180408478 0.150000005960464 9.54720973968506 -0.836995482444763 0.150000005960464 9.45929431915283 -0.888284027576447 0.150000005960464 9.3680944442749 -0.929788291454315 0.150000005960464 9.18196296691895 -0.983305335044861 0.150000005960464 9 -1 0.150000005960464 -9 -1 -2.84999990463257 -9.18196296691895 -0.983305335044861 -2.84999990463257 -9.3680944442749 -0.929788291454315 -2.84999990463257 -9.45929431915283 -0.888284027576447 -2.84999990463257 -9.54720973968506 -0.836995482444763 -2.84999990463257 -9.63029766082764 -0.776353180408478 -2.84999990463257 -9.707106590271 -0.70710676908493 -2.84999990463257 -9.77635288238525 -0.630298137664795 -2.84999990463257 -9.83699512481689 -0.547209739685059 -2.84999990463257 -9.88828372955322 -0.459294617176056 -2.84999990463257 -9.92978858947754 -0.368094712495804 -2.84999990463257 -9.98330497741699 -0.181963056325912 -2.84999990463257 -10 0 -2.84999990463257 -9.98330497741699 0.181963056325912 -2.84999990463257 -9.92978858947754 0.368094712495804 -2.84999990463257 -9.88828372955322 0.459294617176056 -2.84999990463257 -9.83699512481689 0.547209739685059 -2.84999990463257 -9.77635288238525 0.630298137664795 -2.84999990463257 -9.707106590271 0.70710676908493 -2.84999990463257 -9.63029766082764 0.776353180408478 -2.84999990463257 -9.54720973968506 0.836995482444763 -2.84999990463257 -9.45929431915283 0.888284027576447 -2.84999990463257 -9.3680944442749 0.929788291454315 -2.84999990463257 -9.18196296691895 0.983305335044861 -2.84999990463257 -9 1 -2.84999990463257 9 1 -2.84999990463257 9.18196296691895 0.983305335044861 -2.84999990463257 9.3680944442749 0.929788291454315 -2.84999990463257 9.45929431915283 0.888284027576447 -2.84999990463257 9.54720973968506 0.836995482444763 -2.84999990463257 9.63029766082764 0.776353180408478 -2.84999990463257 9.707106590271 0.70710676908493 -2.84999990463257 9.77635288238525 0.630298137664795 -2.84999990463257 9.83699512481689 0.547209739685059 -2.84999990463257 9.88828372955322 0.459294617176056 -2.84999990463257 9.92978858947754 0.368094712495804 -2.84999990463257 9.98330497741699 0.181963056325912 -2.84999990463257 10 0 -2.84999990463257 9.98330497741699 -0.181963056325912 -2.84999990463257 9.92978858947754 -0.368094712495804 -2.84999990463257 9.88828372955322 -0.459294617176056 -2.84999990463257 9.83699512481689 -0.547209739685059 -2.84999990463257 9.77635288238525 -0.630298137664795 -2.84999990463257 9.707106590271 -0.70710676908493 -2.84999990463257 9.63029766082764 -0.776353180408478 -2.84999990463257 9.54720973968506 -0.836995482444763 -2.84999990463257 9.45929431915283 -0.888284027576447 -2.84999990463257 9.3680944442749 -0.929788291454315 -2.84999990463257 9.18196296691895 -0.983305335044861 -2.84999990463257 9 -1 -2.84999990463257</float_array>
          <technique_common>
            <accessor count="202" offset="0" source="#lib-position-array-dcac8de3-367a-42b7-9052-5f1f204a3619" stride="3">
              <param name="X" type="float" />
              <param name="Y" type="float" />
              <param name="Z" type="float" />
            </accessor>
          </technique_common>
        </source>
        <source id="lib-normal-dcac8de3-367a-42b7-9052-5f1f204a3619" name="normal">
          <float_array id="lib-normal-array-dcac8de3-367a-42b7-9052-5f1f204a3619" count="606">0.000000 -1.000000 0.000000 0.000000 -1.000000 0.000000 -0.181963 -0.983305 0.000000 -0.181963 -0.983305 0.000000 -0.368095 -0.929788 0.000000 -0.368095 -0.929788 0.000000 -0.459295 -0.888284 0.000000 -0.459295 -0.888284 0.000000 -0.547210 -0.836995 0.000000 -0.547210 -0.836995 0.000000 -0.630298 -0.776353 0.000000 -0.630298 -0.776353 0.000000 -0.707107 -0.707107 0.000000 -0.707107 -0.707107 0.000000 -0.776353 -0.630298 0.000000 -0.776353 -0.630298 0.000000 -0.836995 -0.547210 0.000000 -0.836995 -0.547210 0.000000 -0.888284 -0.459295 0.000000 -0.888284 -0.459295 0.000000 -0.929788 -0.368095 0.000000 -0.929788 -0.368095 0.000000 -0.983305 -0.181963 0.000000 -0.983305 -0.181963 0.000000 -1.000000 0.000000 0.000000 -1.000000 0.000000 0.000000 -0.983305 0.181963 0.000000 -0.983305 0.181963 0.000000 -0.929788 0.368095 0.000000 -0.929788 0.368095 0.000000 -0.888284 0.459295 0.000000 -0.888284 0.459295 0.000000 -0.836995 0.547210 0.000000 -0.836995 0.547210 0.000000 -0.776353 0.630298 0.000000 -0.776353 0.630298 0.000000 -0.707107 0.707107 0.000000 -0.707107 0.707107 0.000000 -0.630298 0.776353 0.000000 -0.630298 0.776353 0.000000 -0.547210 0.836995 0.000000 -0.547210 0.836995 0.000000 -0.459295 0.888284 0.000000 -0.459295 0.888284 0.000000 -0.368095 0.929788 0.000000 -0.368095 0.929788 0.000000 -0.181963 0.983305 0.000000 -0.181963 0.983305 0.000000 0.000000 1.000000 0.000000 0.000000 1.000000 0.000000 0.000000 1.000000 0.000000 0.000000 1.000000 0.000000 0.181963 0.983305 0.000000 0.181963 0.983305 0.000000 0.368095 0.929788 0.000000 0.368095 0.929788 0.000000 0.459295 0.888284 0.000000 0.459295 0.888284 0.000000 0.547210 0.836995 0.000000 0.547210 0.836995 0.000000 0.630298 0.776353 0.000000 0.630298 0.776353 0.000000 0.707107 0.707107 0.000000 0.707107 0.707107 0.000000 0.776353 0.630298 0.000000 0.776353 0.630298 0.000000 0.836995 0.547210 0.000000 0.836995 0.547210 0.000000 0.888284 0.459295 0.000000 0.888284 0.459295 0.000000 0.929788 0.368095 0.000000 0.929788 0.368095 0.000000 0.983305 0.181963 0.000000 0.983305 0.181963 0.000000 1.000000 0.000000 0.000000 1.000000 0.000000 0.000000 0.983305 -0.181963 0.000000 0.983305 -0.181963 0.000000 0.929788 -0.368095 0.000000 0.929788 -0.368095 0.000000 0.888284 -0.459295 0.000000 0.888284 -0.459295 0.000000 0.836995 -0.547210 0.000000 0.836995 -0.547210 0.000000 0.776353 -0.630298 0.000000 0.776353 -0.630298 0.000000 0.707107 -0.707107 0.000000 0.707107 -0.707107 0.000000 0.630298 -0.776353 0.000000 0.630298 -0.776353 0.000000 0.547210 -0.836995 0.000000 0.547210 -0.836995 0.000000 0.459295 -0.888284 0.000000 0.459295 -0.888284 0.000000 0.368095 -0.929788 0.000000 0.368095 -0.929788 0.000000 0.181963 -0.983305 0.000000 0.181963 -0.983305 0.000000 0.000000 -1.000000 0.000000 0.000000 -1.000000 0.000000 0.000000 -1.000000 0.000000 0.000000 -1.000000 0.000000 0.000000 0.000000 1.000000 0.000000 0.000000 1.000000 0.000000 0.000000 1.000000 0.000000 0.000000 1.000000 0.000000 0.000000 1.000000 0.000000 0.000000 1.000000 0.000000 0.000000 1.000000 0.000000 0.000000 1.000000 0.000000 0.000000 1.000000 0.000000 0.000000 1.000000 0.000000 0.000000 1.000000 0.000000 0.000000 1.000000 0.000000 0.000000 1.000000 0.000000 0.000000 1.000000 0.000000 0.000000 1.000000 0.000000 0.000000 1.000000 0.000000 0.000000 1.000000 0.000000 0.000000 1.000000 0.000000 0.000000 1.000000 0.000000 0.000000 1.000000 0.000000 0.000000 1.000000 0.000000 0.000000 1.000000 0.000000 0.000000 1.000000 0.000000 0.000000 1.000000 0.000000 0.000000 1.000000 0.000000 0.000000 1.000000 0.000000 0.000000 1.000000 0.000000 0.000000 1.000000 0.000000 0.000000 1.000000 0.000000 0.000000 1.000000 0.000000 0.000000 1.000000 0.000000 0.000000 1.000000 0.000000 0.000000 1.000000 0.000000 0.000000 1.000000 0.000000 0.000000 1.000000 0.000000 0.000000 1.000000 0.000000 0.000000 1.000000 0.000000 0.000000 1.000000 0.000000 0.000000 1.000000 0.000000 0.000000 1.000000 0.000000 0.000000 1.000000 0.000000 0.000000 1.000000 0.000000 0.000000 1.000000 0.000000 0.000000 1.000000 0.000000 0.000000 1.000000 0.000000 0.000000 1.000000 0.000000 0.000000 1.000000 0.000000 0.000000 1.000000 0.000000 0.000000 1.000000 0.000000 0.000000 1.000000 0.000000 0.000000 -1.000000 0.000000 0.000000 -1.000000 0.000000 0.000000 -1.000000 0.000000 0.000000 -1.000000 0.000000 0.000000 -1.000000 0.000000 0.000000 -1.000000 0.000000 0.000000 -1.000000 0.000000 0.000000 -1.000000 0.000000 0.000000 -1.000000 0.000000 0.000000 -1.000000 0.000000 0.000000 -1.000000 0.000000 0.000000 -1.000000 0.000000 0.000000 -1.000000 0.000000 0.000000 -1.000000 0.000000 0.000000 -1.000000 0.000000 0.000000 -1.000000 0.000000 0.000000 -1.000000 0.000000 0.000000 -1.000000 0.000000 0.000000 -1.000000 0.000000 0.000000 -1.000000 0.000000 0.000000 -1.000000 0.000000 0.000000 -1.000000 0.000000 0.000000 -1.000000 0.000000 0.000000 -1.000000 0.000000 0.000000 -1.000000 0.000000 0.000000 -1.000000 0.000000 0.000000 -1.000000 0.000000 0.000000 -1.000000 0.000000 0.000000 -1.000000 0.000000 0.000000 -1.000000 0.000000 0.000000 -1.000000 0.000000 0.000000 -1.000000 0.000000 0.000000 -1.000000 0.000000 0.000000 -1.000000 0.000000 0.000000 -1.000000 0.000000 0.000000 -1.000000 0.000000 0.000000 -1.000000 0.000000 0.000000 -1.000000 0.000000 0.000000 -1.000000 0.000000 0.000000 -1.000000 0.000000 0.000000 -1.000000 0.000000 0.000000 -1.000000 0.000000 0.000000 -1.000000 0.000000 0.000000 -1.000000 0.000000 0.000000 -1.000000 0.000000 0.000000 -1.000000 0.000000 0.000000 -1.000000 0.000000 0.000000 -1.000000 0.000000 0.000000 -1.000000 0.000000 0.000000 -1.000000</float_array>
          <technique_common>
            <accessor count="202" offset="0" source="#lib-normal-array-dcac8de3-367a-42b7-9052-5f1f204a3619" stride="3">
              <param name="X" type="float" />
              <param name="Y" type="float" />
              <param name="Z" type="float" />
            </accessor>
          </technique_common>
        </source>
        <source id="lib-map1-dcac8de3-367a-42b7-9052-5f1f204a3619" name="map1">
          <float_array id="lib-map1-array-dcac8de3-367a-42b7-9052-5f1f204a3619" count="404">0.000000 0.000000 0.000000 0.714285 0.004644 0.000000 0.004644 0.714285 0.009287 0.000000 0.009287 0.714285 0.011609 0.000000 0.011609 0.714285 0.013931 0.000000 0.013931 0.714285 0.016253 0.000000 0.016253 0.714285 0.018575 0.000000 0.018575 0.714285 0.020897 0.000000 0.020897 0.714285 0.023218 0.000000 0.023218 0.714285 0.025540 0.000000 0.025540 0.714285 0.027862 0.000000 0.027862 0.714285 0.032506 0.000000 0.032506 0.714285 0.037149 0.000000 0.037149 0.714285 0.041793 0.000000 0.041793 0.714285 0.046437 0.000000 0.046437 0.714285 0.048759 0.000000 0.048759 0.714285 0.051080 0.000000 0.051080 0.714285 0.053402 0.000000 0.053402 0.714285 0.055724 0.000000 0.055724 0.714285 0.058046 0.000000 0.058046 0.714285 0.060368 0.000000 0.060368 0.714285 0.062690 0.000000 0.062690 0.714285 0.065012 0.000000 0.065012 0.714285 0.069655 0.000000 0.069655 0.714285 0.074299 0.000000 0.074299 0.714285 0.500000 0.000000 0.500000 0.714285 0.504644 0.000000 0.504644 0.714285 0.509287 0.000000 0.509287 0.714285 0.511609 0.000000 0.511609 0.714285 0.513931 0.000000 0.513931 0.714285 0.516253 0.000000 0.516253 0.714285 0.518575 0.000000 0.518575 0.714285 0.520897 0.000000 0.520897 0.714285 0.523218 0.000000 0.523218 0.714285 0.525540 0.000000 0.525540 0.714285 0.527862 0.000000 0.527862 0.714285 0.532506 0.000000 0.532506 0.714285 0.537149 0.000000 0.537149 0.714285 0.541793 0.000000 0.541793 0.714285 0.546437 0.000000 0.546437 0.714285 0.548759 0.000000 0.548759 0.714285 0.551080 0.000000 0.551080 0.714285 0.553402 0.000000 0.553402 0.714285 0.555724 0.000000 0.555724 0.714285 0.558046 0.000000 0.558046 0.714285 0.560368 0.000000 0.560368 0.714285 0.562690 0.000000 0.562690 0.714285 0.565012 0.000000 0.565012 0.714285 0.569655 0.000000 0.569655 0.714285 0.574299 0.000000 0.574299 0.714285 1.000000 0.000000 1.000000 0.714285 0.449414 1.000000 0.453718 0.997615 0.458121 0.989970 0.460278 0.984041 0.462357 0.976714 0.464323 0.968050 0.466139 0.958158 0.467777 0.947185 0.469212 0.935316 0.470425 0.922756 0.471406 0.909728 0.472672 0.883138 0.473067 0.857143 0.472672 0.831148 0.471406 0.804558 0.470425 0.791529 0.469212 0.778970 0.467777 0.767100 0.466139 0.756128 0.464323 0.746235 0.462357 0.737572 0.460278 0.730245 0.458121 0.724316 0.453718 0.716671 0.449414 0.714286 0.023653 0.714286 0.019349 0.716671 0.014947 0.724316 0.012789 0.730245 0.010710 0.737572 0.008745 0.746235 0.006928 0.756128 0.005290 0.767100 0.003856 0.778970 0.002642 0.791529 0.001661 0.804558 0.000395 0.831148 0.000000 0.857143 0.000395 0.883138 0.001661 0.909728 0.002642 0.922756 0.003856 0.935316 0.005290 0.947185 0.006928 0.958158 0.008745 0.968050 0.010710 0.976714 0.012789 0.984041 0.014947 0.989970 0.019349 0.997615 0.023653 1.000000 0.449414 0.714286 0.453718 0.716671 0.458121 0.724316 0.460278 0.730245 0.462357 0.737572 0.464323 0.746235 0.466139 0.756128 0.467777 0.767100 0.469212 0.778970 0.470425 0.791529 0.471406 0.804558 0.472672 0.831148 0.473067 0.857143 0.472672 0.883138 0.471406 0.909728 0.470425 0.922756 0.469212 0.935316 0.467777 0.947185 0.466139 0.958158 0.464323 0.968050 0.462357 0.976714 0.460278 0.984041 0.458121 0.989970 0.453718 0.997615 0.449414 1.000000 0.023653 1.000000 0.019349 0.997615 0.014947 0.989970 0.012789 0.984041 0.010710 0.976714 0.008745 0.968050 0.006928 0.958158 0.005290 0.947185 0.003856 0.935316 0.002642 0.922756 0.001661 0.909728 0.000395 0.883138 0.000000 0.857143 0.000395 0.831148 0.001661 0.804558 0.002642 0.791529 0.003856 0.778970 0.005290 0.767100 0.006928 0.756128 0.008745 0.746235 0.010710 0.737572 0.012789 0.730245 0.014947 0.724316 0.019349 0.716671 0.023653 0.714286</float_array>
          <technique_common>
            <accessor count="202" offset="0" source="#lib-map1-array-dcac8de3-367a-42b7-9052-5f1f204a3619" stride="2">
              <param name="S" type="float" />
              <param name="T" type="float" />
            </accessor>
          </technique_common>
        </source>
        <vertices id="lib-vertices-dcac8de3-367a-42b7-9052-5f1f204a3619">
          <input semantic="POSITION" source="#lib-position-dcac8de3-367a-42b7-9052-5f1f204a3619" />
        </vertices>
        <triangles count="196" material="material-ce9d86c2-e4fb-4ec6-bb71-b0b00f1101fb">
          <input offset="0" semantic="VERTEX" source="#lib-vertices-dcac8de3-367a-42b7-9052-5f1f204a3619" />
          <input offset="1" semantic="NORMAL" source="#lib-normal-dcac8de3-367a-42b7-9052-5f1f204a3619" />
          <input offset="2" semantic="TEXCOORD" source="#lib-map1-dcac8de3-367a-42b7-9052-5f1f204a3619" />
          <p>0 0 0 2 2 2 3 3 3 2 2 2 4 4 4 5 5 5 4 4 4 6 6 6 7 7 7 6 6 6 8 8 8 9 9 9 8 8 8 10 10 10 11 11 11 10 10 10 12 12 12 13 13 13 12 12 12 14 14 14 15 15 15 14 14 14 16 16 16 17 17 17 16 16 16 18 18 18 19 19 19 18 18 18 20 20 20 21 21 21 20 20 20 22 22 22 23 23 23 22 22 22 24 24 24 25 25 25 24 24 24 26 26 26 27 27 27 26 26 26 28 28 28 29 29 29 28 28 28 30 30 30 31 31 31 30 30 30 32 32 32 33 33 33 32 32 32 34 34 34 35 35 35 34 34 34 36 36 36 37 37 37 36 36 36 38 38 38 39 39 39 38 38 38 40 40 40 41 41 41 40 40 40 42 42 42 43 43 43 42 42 42 44 44 44 45 45 45 44 44 44 46 46 46 47 47 47 46 46 46 48 48 48 49 49 49 48 48 48 50 50 50 51 51 51 50 50 50 52 52 52 53 53 53 52 52 52 54 54 54 55 55 55 54 54 54 56 56 56 57 57 57 56 56 56 58 58 58 59 59 59 58 58 58 60 60 60 61 61 61 60 60 60 62 62 62 63 63 63 62 62 62 64 64 64 65 65 65 64 64 64 66 66 66 67 67 67 66 66 66 68 68 68 69 69 69 68 68 68 70 70 70 71 71 71 70 70 70 72 72 72 73 73 73 72 72 72 74 74 74 75 75 75 74 74 74 76 76 76 77 77 77 76 76 76 78 78 78 79 79 79 78 78 78 80 80 80 81 81 81 80 80 80 82 82 82 83 83 83 82 82 82 84 84 84 85 85 85 84 84 84 86 86 86 87 87 87 86 86 86 88 88 88 89 89 89 88 88 88 90 90 90 91 91 91 90 90 90 92 92 92 93 93 93 92 92 92 94 94 94 95 95 95 94 94 94 96 96 96 97 97 97 96 96 96 98 98 98 99 99 99 98 98 98 100 100 100 101 101 101 144 144 144 143 143 143 141 141 141 145 145 145 144 144 144 141 141 141 143 143 143 142 142 142 141 141 141 141 141 141 140 140 140 139 139 139 145 145 145 141 141 141 135 135 135 145 145 145 151 151 151 150 150 150 150 150 150 149 149 149 145 145 145 149 149 149 148 148 148 147 147 147 147 147 147 145 145 145 149 149 149 145 145 145 147 147 147 146 146 146 145 145 145 132 132 132 151 151 151 139 139 139 138 138 138 141 141 141 138 138 138 137 137 137 141 141 141 136 136 136 135 135 135 137 137 137 133 133 133 135 135 135 134 134 134 137 137 137 135 135 135 141 141 141 131 131 131 130 130 130 132 132 132 135 135 135 133 133 133 132 132 132 128 128 128 130 130 130 129 129 129 130 130 130 128 128 128 127 127 127 127 127 127 132 132 132 130 130 130 135 135 135 132 132 132 145 145 145 151 151 151 132 132 132 127 127 127 127 127 127 102 102 102 151 151 151 103 103 103 102 102 102 106 106 106 104 104 104 103 103 103 105 105 105 106 106 106 102 102 102 122 122 122 105 105 105 103 103 103 106 106 106 107 107 107 106 106 106 108 108 108 110 110 110 109 109 109 108 108 108 112 112 112 110 110 110 108 108 108 112 112 112 108 108 108 119 119 119 111 111 111 110 110 110 112 112 112 106 106 106 122 122 122 108 108 108 113 113 113 112 112 112 114 114 114 119 119 119 122 122 122 121 121 121 123 123 123 122 122 122 124 124 124 102 102 102 126 126 126 125 125 125 125 125 125 124 124 124 102 102 102 124 124 124 122 122 122 102 102 102 115 115 115 114 114 114 116 116 116 112 112 112 119 119 119 116 116 116 120 120 120 119 119 119 121 121 121 116 116 116 119 119 119 118 118 118 116 116 116 118 118 118 117 117 117 119 119 119 108 108 108 122 122 122 114 114 114 112 112 112 116 116 116 127 127 127 126 126 126 102 102 102 194 194 194 191 191 191 193 193 193 195 195 195 191 191 191 194 194 194 193 193 193 191 191 191 192 192 192 191 191 191 189 189 189 190 190 190 195 195 195 185 185 185 191 191 191 195 195 195 200 200 200 201 201 201 200 200 200 195 195 195 199 199 199 199 199 199 197 197 197 198 198 198 197 197 197 199 199 199 195 195 195 195 195 195 196 196 196 197 197 197 195 195 195 201 201 201 182 182 182 189 189 189 191 191 191 188 188 188 188 188 188 191 191 191 187 187 187 186 186 186 187 187 187 185 185 185 183 183 183 184 184 184 185 185 185 187 187 187 191 191 191 185 185 185 181 181 181 182 182 182 180 180 180 185 185 185 182 182 182 183 183 183 178 178 178 179 179 179 180 180 180 180 180 180 177 177 177 178 178 178 177 177 177 180 180 180 182 182 182 185 185 185 195 195 195 182 182 182 201 201 201 177 177 177 182 182 182 177 177 177 201 201 201 152 152 152 153 153 153 156 156 156 152 152 152 154 154 154 155 155 155 153 153 153 156 156 156 172 172 172 152 152 152 155 155 155 156 156 156 153 153 153 157 157 157 158 158 158 156 156 156 160 160 160 158 158 158 159 159 159 162 162 162 158 158 158 160 160 160 162 162 162 169 169 169 158 158 158 161 161 161 162 162 162 160 160 160 156 156 156 158 158 158 172 172 172 163 163 163 164 164 164 162 162 162 169 169 169 171 171 171 172 172 172 173 173 173 174 174 174 172 172 172 152 152 152 175 175 175 176 176 176 175 175 175 152 152 152 174 174 174 174 174 174 152 152 152 172 172 172 165 165 165 166 166 166 164 164 164 162 162 162 166 166 166 169 169 169 170 170 170 171 171 171 169 169 169 166 166 166 168 168 168 169 169 169 166 166 166 167 167 167 168 168 168 169 169 169 172 172 172 158 158 158 164 164 164 166 166 166 162 162 162 177 177 177 152 152 152 176 176 176 0 0 0 3 3 3 1 1 1 2 2 2 5 5 5 3 3 3 4 4 4 7 7 7 5 5 5 6 6 6 9 9 9 7 7 7 8 8 8 11 11 11 9 9 9 10 10 10 13 13 13 11 11 11 12 12 12 15 15 15 13 13 13 14 14 14 17 17 17 15 15 15 16 16 16 19 19 19 17 17 17 18 18 18 21 21 21 19 19 19 20 20 20 23 23 23 21 21 21 22 22 22 25 25 25 23 23 23 24 24 24 27 27 27 25 25 25 26 26 26 29 29 29 27 27 27 28 28 28 31 31 31 29 29 29 30 30 30 33 33 33 31 31 31 32 32 32 35 35 35 33 33 33 34 34 34 37 37 37 35 35 35 36 36 36 39 39 39 37 37 37 38 38 38 41 41 41 39 39 39 40 40 40 43 43 43 41 41 41 42 42 42 45 45 45 43 43 43 44 44 44 47 47 47 45 45 45 46 46 46 49 49 49 47 47 47 48 48 48 51 51 51 49 49 49 50 50 50 53 53 53 51 51 51 52 52 52 55 55 55 53 53 53 54 54 54 57 57 57 55 55 55 56 56 56 59 59 59 57 57 57 58 58 58 61 61 61 59 59 59 60 60 60 63 63 63 61 61 61 62 62 62 65 65 65 63 63 63 64 64 64 67 67 67 65 65 65 66 66 66 69 69 69 67 67 67 68 68 68 71 71 71 69 69 69 70 70 70 73 73 73 71 71 71 72 72 72 75 75 75 73 73 73 74 74 74 77 77 77 75 75 75 76 76 76 79 79 79 77 77 77 78 78 78 81 81 81 79 79 79 80 80 80 83 83 83 81 81 81 82 82 82 85 85 85 83 83 83 84 84 84 87 87 87 85 85 85 86 86 86 89 89 89 87 87 87 88 88 88 91 91 91 89 89 89 90 90 90 93 93 93 91 91 91 92 92 92 95 95 95 93 93 93 94 94 94 97 97 97 95 95 95 96 96 96 99 99 99 97 97 97 98 98 98 101 101 101 99 99 99</p>
        </triangles>
      </mesh>
    </geometry>
  </library_geometries>
  <library_visual_scenes>
    <visual_scene id="VisualSceneNode">
      <node id="View-Perspective" name="View-Perspective">
        <matrix>0.562094 -0.409783 0.718421 501.937353 0.827073 0.278496 -0.488252 -238.034063 0.000000 0.868630 0.495461 388.032577 0.000000 0.000000 0.000000 1.000000</matrix>
        <instance_camera url="#Camera-Perspective" />
      </node>
      <node id="View-Top" name="View-Top">
        <matrix>1.000000 0.000000 0.000000 -6.054182 0.000000 1.000000 0.000000 5.096177 0.000000 0.000000 1.000000 4232.917900 0.000000 0.000000 0.000000 1.000000</matrix>
        <instance_camera url="#Camera-Top" />
      </node>
      <node id="View-Front" name="View-Front">
        <matrix>1.000000 0.000000 0.000000 -2.034791 0.000000 0.000000 -1.000000 -2132.577608 0.000000 1.000000 0.000000 -0.206250 0.000000 0.000000 0.000000 1.000000</matrix>
        <instance_camera url="#Camera-Front" />
      </node>
      <node id="View-Right" name="View-Right">
        <matrix>0.000000 0.000000 1.000000 7083.379725 1.000000 0.000000 0.000000 41.936354 0.000000 1.000000 0.000000 -6.947952 0.000000 0.000000 0.000000 1.000000</matrix>
        <instance_camera url="#Camera-Right" />
      </node>
      <node id="a95cb8fc-a22b-481b-8e84-0edf8585d779" name="Extrusion">
        <instance_geometry url="#mesh-dcac8de3-367a-42b7-9052-5f1f204a3619">
          <bind_material>
            <technique_common>
              <instance_material symbol="material-ce9d86c2-e4fb-4ec6-bb71-b0b00f1101fb" target="#ce9d86c2-e4fb-4ec6-bb71-b0b00f1101fb" />
            </technique_common>
          </bind_material>
        </instance_geometry>
      </node>
    </visual_scene>
  </library_visual_scenes>
  <scene>
    <instance_visual_scene url="#VisualSceneNode" />
  </scene>
</COLLADA>